<svg id="Layer_1" enable-background="new 0 0 512 512" height="512" viewBox="0 0 512 512" width="512" xmlns="http://www.w3.org/2000/svg"><g><g><path d="m144 304h-32c-26.51 0-48 21.49-48 48 0 26.51 21.49 48 48 48h32c26.51 0 48-21.49 48-48 0-26.51-21.49-48-48-48z" fill="#32283c"/></g><g><path d="m368 336v-208c0-8.837-7.163-16-16-16h-160c8.837 0 16 7.163 16 16v208c0 8.837-7.163 16-16 16h160c8.837 0 16-7.163 16-16z" fill="#cd3232"/></g><g><g><path d="m192 112h-164c-6.627 0-12 5.373-12 12 0 6.627 5.373 12 12 12h40c6.627 0 12 5.373 12 12 0 6.627-5.373 12-12 12h-24c-6.627 0-12 5.373-12 12 0 6.627 5.373 12 12 12h56c6.627 0 12 5.373 12 12 0 6.627-5.373 12-12 12h-24c-6.627 0-12 5.373-12 12 0 6.627 5.373 12 12 12h40c6.627 0 12 5.373 12 12 0 6.627-5.373 12-12 12h-56c-6.627 0-12 5.373-12 12 0 6.627 5.373 12 12 12h8c6.627 0 12 5.373 12 12 0 6.627-5.373 12-12 12h-40c-6.627 0-12 5.373-12 12 0 6.627 5.373 12 12 12h40c6.627 0 12 5.373 12 12 0 6.627 5.373 12 12 12h100c8.837 0 16-7.163 16-16v-208c0-8.837-7.163-16-16-16z" fill="#ff4646"/></g><g><path d="m48 220c0-6.627-5.373-12-12-12h-8c-6.627 0-12 5.373-12 12 0 6.627 5.373 12 12 12h8c6.627 0 12-5.373 12-12z" fill="#ff4646"/></g></g><g><path d="m432 304h-32c-26.51 0-48 21.49-48 48 0 26.51 21.49 48 48 48h32c26.51 0 48-21.49 48-48 0-26.51-21.49-48-48-48z" fill="#32283c"/></g><g><path d="m304 304h-32c-26.51 0-48 21.49-48 48 0 26.51 21.49 48 48 48h32c26.51 0 48-21.49 48-48 0-26.51-21.49-48-48-48z" fill="#32283c"/></g><g><path d="m480 352h-256c-8.837 0-16-7.163-16-16v-80h288v80c0 8.837-7.163 16-16 16z" fill="#a5c3dc"/></g><g><path d="m429.004 152h-197.004c-13.255 0-24 10.745-24 24v80h288c0-10.499-2.634-20.83-7.662-30.046l-31.242-57.277c-5.607-10.281-16.382-16.677-28.092-16.677z" fill="#32283c"/></g><g><path d="m269.004 152h-37.004c-13.255 0-24 10.745-24 24v80h128c0-10.499-2.634-20.83-7.662-30.046l-31.242-57.277c-5.607-10.281-16.382-16.677-28.092-16.677z" fill="#463c4b"/></g><g><path d="m320 352h-96c-8.837 0-16-7.163-16-16v-80h128v80c0 8.837-7.163 16-16 16z" fill="#e6e6eb"/></g><g><circle cx="384" cy="312" fill="#e6e6eb" r="16"/></g><g><circle cx="448" cy="312" fill="#e6e6eb" r="16"/></g><g><circle cx="272" cy="352" fill="#463c4b" r="48"/></g><g><circle cx="272" cy="352" fill="#e6e6eb" r="16"/></g><g><circle cx="112" cy="352" fill="#463c4b" r="48"/></g><g><circle cx="112" cy="352" fill="#e6e6eb" r="16"/></g><g><path d="m461.091 176-3.994-7.323c-5.608-10.28-16.383-16.677-28.093-16.677h-197.004c-13.255 0-24 10.745-24 24z" fill="#a5c3dc"/></g><g><path d="m208 176h93.091l-3.994-7.323c-5.608-10.28-16.383-16.677-28.093-16.677h-37.004c-13.255 0-24 10.745-24 24z" fill="#e6e6eb"/></g></g></svg>